<svg width="966" height="253" viewBox="0 0 966 253" fill="none" xmlns="http://www.w3.org/2000/svg">
<path d="M132 85L61.2001 4.19998H0.800049V249H67.6001V100.2L132 176.6L196.4 98.6V249H263.2V4.19998H202.8L132 85Z" fill="#202431"/>
<path d="M368.816 4.19998H302.016V249H368.816V4.19998Z" fill="#202431"/>
<path d="M596.475 164.6C596.475 90.6 491.275 107.8 491.275 77C491.275 65.4 504.875 59 521.675 59C549.675 59 573.675 74.2 573.675 74.6L594.875 25.4C594.875 25.4 572.075 0.599976 513.675 0.599976C450.475 0.599976 422.075 33 422.075 77.4C422.075 155.4 524.475 143.4 524.475 171C524.475 183 512.475 190.2 492.075 190.2C473.675 190.2 430.075 168.2 430.075 168.2L404.075 227.8C404.075 227.8 438.075 253 498.875 253C546.875 253 596.475 220.2 596.475 164.6Z" fill="#202431"/>
<path d="M742.494 0.199982C694.894 0.199982 623.294 29.4 623.294 126.6C623.294 224.2 692.894 253 742.494 253C792.094 253 860.894 224.2 860.894 126.6C860.894 28.6 790.094 0.199982 742.494 0.199982ZM742.494 59.4C778.094 59.4 787.694 95 787.694 126.6C787.694 168.6 774.894 195 742.494 195C711.294 195 696.494 168.6 696.494 126.6C696.494 95 706.894 59.4 742.494 59.4Z" fill="#202431"/>
<path d="M965.585 209.8C965.585 185.8 946.385 166.2 922.385 166.2C898.385 166.2 879.185 185.8 879.185 209.8C879.185 233.4 898.385 253 922.385 253C946.385 253 965.585 233.4 965.585 209.8Z" fill="#D64541"/>
</svg>
