<svg width="966" height="253" viewBox="0 0 966 253" fill="none" xmlns="http://www.w3.org/2000/svg">
<path d="M132 84.8L61.2001 4H0.800049V248.8H67.6001V100L132 176.4L196.4 98.4V248.8H263.2V4H202.8L132 84.8Z" fill="#F1F3F8"/>
<path d="M368.816 4H302.016V248.8H368.816V4Z" fill="#F1F3F8"/>
<path d="M596.475 164.4C596.475 90.4 491.275 107.6 491.275 76.8C491.275 65.2 504.875 58.8 521.675 58.8C549.675 58.8 573.675 74 573.675 74.4L594.875 25.2C594.875 25.2 572.075 0.399994 513.675 0.399994C450.475 0.399994 422.075 32.8 422.075 77.2C422.075 155.2 524.475 143.2 524.475 170.8C524.475 182.8 512.475 190 492.075 190C473.675 190 430.075 168 430.075 168L404.075 227.6C404.075 227.6 438.075 252.8 498.875 252.8C546.875 252.8 596.475 220 596.475 164.4Z" fill="#F1F3F8"/>
<path d="M742.494 0C694.894 0 623.294 29.2 623.294 126.4C623.294 224 692.894 252.8 742.494 252.8C792.094 252.8 860.894 224 860.894 126.4C860.894 28.4 790.094 0 742.494 0ZM742.494 59.2C778.094 59.2 787.694 94.8 787.694 126.4C787.694 168.4 774.894 194.8 742.494 194.8C711.294 194.8 696.494 168.4 696.494 126.4C696.494 94.8 706.894 59.2 742.494 59.2Z" fill="#F1F3F8"/>
<path d="M965.585 209.6C965.585 185.6 946.385 166 922.385 166C898.385 166 879.185 185.6 879.185 209.6C879.185 233.2 898.385 252.8 922.385 252.8C946.385 252.8 965.585 233.2 965.585 209.6Z" fill="#D64541"/>
</svg>
